# xmcd CD database file
#
# Track frame offsets:
#	150
#	15033
#	31495
#	48620
#	66910
#	82118
#	95678
#	109395
#	119323
#	134655
#	155375
#	172605
#	186565
#	205388
#	221743
#
# Disc length: 3171 seconds
#
# Revision: 0
# Processed by: cddbd v1.4PL0 Copyright (c) Steve Scherf et al.
# Submitted via: CDex 1.50beta9
#
DISCID=da0c610f
DTITLE=Brendan Shine - AlWays A Welcome
DYEAR=1900
DGENRE=Country
TTITLE0=There's Always A Welcome
TTITLE1=I'm Your Man From Strabane
TTITLE2=Lovely Isle Of Green
TTITLE3=I'm A Savage For Bacon and Cabbage
TTITLE4=My Galway Queen
TTITLE5=Joe Come On Home
TTITLE6=Big Green Mercury
TTITLE7=Old Faithful
TTITLE8=Meet Me In Tralee
TTITLE9=David's Dream
TTITLE10=Time Marches On
TTITLE11=Bury Me Not On The Lone Prairie
TTITLE12=Irish Elvis Prsley
TTITLE13=Lough Key
TTITLE14=Gather Up Me Bags
EXTD=
EXTT0=
EXTT1=
EXTT2=
EXTT3=
EXTT4=
EXTT5=
EXTT6=
EXTT7=
EXTT8=
EXTT9=
EXTT10=
EXTT11=
EXTT12=
EXTT13=
EXTT14=
PLAYORDER=
